<svg width="72" height="72" viewBox="0 0 72 72" fill="none" xmlns="http://www.w3.org/2000/svg">
<g id="fa:telegram" clip-path="url(#clip0_1_172)">
<path id="Vector" d="M47.7723 52.5134L53.6786 24.6696C53.9196 23.4911 53.779 22.6473 53.2567 22.1384C52.7344 21.6295 52.0446 21.5357 51.1875 21.8571L16.4732 35.2366C15.6964 35.5312 15.1674 35.8661 14.8862 36.2411C14.6049 36.6161 14.5714 36.971 14.7857 37.3058C15 37.6406 15.4286 37.9018 16.0714 38.0893L24.9509 40.8616L45.5625 27.8839C46.125 27.5089 46.5536 27.4286 46.8482 27.6429C47.0357 27.7768 46.9821 27.9777 46.6875 28.2455L30.0134 43.3125L29.3705 52.4732C29.9866 52.4732 30.5893 52.1786 31.1786 51.5893L35.5179 47.4107L44.5179 54.0402C46.2321 55.0045 47.317 54.4955 47.7723 52.5134ZM72 36C72 40.875 71.0491 45.5357 69.1473 49.9821C67.2455 54.4286 64.6875 58.2589 61.4732 61.4732C58.2589 64.6875 54.4286 67.2455 49.9821 69.1473C45.5357 71.0491 40.875 72 36 72C31.125 72 26.4643 71.0491 22.0179 69.1473C17.5714 67.2455 13.7411 64.6875 10.5268 61.4732C7.3125 58.2589 4.75446 54.4286 2.85268 49.9821C0.950893 45.5357 0 40.875 0 36C0 31.125 0.950893 26.4643 2.85268 22.0179C4.75446 17.5714 7.3125 13.7411 10.5268 10.5268C13.7411 7.3125 17.5714 4.75446 22.0179 2.85268C26.4643 0.950893 31.125 0 36 0C40.875 0 45.5357 0.950893 49.9821 2.85268C54.4286 4.75446 58.2589 7.3125 61.4732 10.5268C64.6875 13.7411 67.2455 17.5714 69.1473 22.0179C71.0491 26.4643 72 31.125 72 36Z" fill="white"/>
</g>
<defs>
<clipPath id="clip0_1_172">
<rect width="72" height="72" fill="white"/>
</clipPath>
</defs>
</svg>
