<svg width="1920" height="905" viewBox="0 0 1920 905" fill="none" xmlns="http://www.w3.org/2000/svg">
<path d="M296.309 0H50C22.3858 0 0 22.3858 0 50V905H1501.82C1513.97 905 1525.7 900.577 1534.82 892.557L1555.18 874.672C1564.3 866.652 1576.03 862.229 1588.18 862.229H1725.56C1736.24 862.229 1746.64 865.649 1755.23 871.987L1786.77 895.241C1795.36 901.58 1805.76 905 1816.44 905H1920V0H926.333C915.72 0 905.383 3.37683 896.817 9.64181L863.183 34.2398C854.617 40.5048 844.28 43.8816 833.667 43.8816H389.474C378.98 43.8816 368.752 40.5799 360.239 34.444L325.544 9.43764C317.031 3.30177 306.803 0 296.309 0Z" fill="url(#paint0_linear_19_313)"/>
<defs>
<linearGradient id="paint0_linear_19_313" x1="8.77741e-06" y1="20.1952" x2="1891.13" y2="986.312" gradientUnits="userSpaceOnUse">
<stop offset="0.436602" stop-color="#1F2ADB"/>
<stop offset="1" stop-color="#111675"/>
</linearGradient>
</defs>
</svg>
