<svg width="1440" height="905" viewBox="0 0 1440 905" fill="none" xmlns="http://www.w3.org/2000/svg">
<path d="M214.207 0H50C22.3858 0 0 22.3858 0 50V905H1117.44C1132.07 905 1145.97 898.589 1155.47 887.457L1162.03 879.772C1171.53 868.64 1185.43 862.229 1200.06 862.229H1286.04C1299.15 862.229 1311.74 867.381 1321.09 876.576L1335.41 890.653C1344.76 899.847 1357.35 905 1370.46 905H1440V0H811.853C801.815 0 792.01 3.02135 783.712 8.6709L744.735 35.2107C736.437 40.8603 726.632 43.8816 716.594 43.8816L300.131 43.8816C287.214 43.8816 274.799 38.8831 265.485 29.9331L248.852 13.9486C239.539 4.99859 227.123 0 214.207 0Z" fill="url(#paint0_linear_111_9)"/>
<defs>
<linearGradient id="paint0_linear_111_9" x1="6.58306e-06" y1="20.1952" x2="1559.56" y2="617.744" gradientUnits="userSpaceOnUse">
<stop offset="0.436602" stop-color="#1F2ADB"/>
<stop offset="1" stop-color="#111675"/>
</linearGradient>
</defs>
</svg>
