<svg width="360" height="1173" viewBox="0 0 360 1173" fill="none" xmlns="http://www.w3.org/2000/svg">
<path d="M54.2409 0H12.6042C5.64308 0 0 5.64306 0 12.6042V1173H213.274C215.391 1173 217.473 1172.47 219.329 1171.45L248.671 1155.38C250.527 1154.36 252.609 1153.83 254.726 1153.83H280.604C282.828 1153.83 285.013 1154.42 286.936 1155.53L314.064 1171.29C315.987 1172.41 318.172 1173 320.396 1173H360V0H203.951C200.836 0 197.831 1.15355 195.516 3.23813L177.596 19.3763C175.281 21.4609 172.276 22.6144 169.161 22.6144H91.8434C89.029 22.6144 86.2956 21.6725 84.0786 19.9386L62.0057 2.67578C59.7887 0.941957 57.0553 0 54.2409 0Z" fill="url(#paint0_linear_1_230)"/>
<defs>
<linearGradient id="paint0_linear_1_230" x1="1.64577e-06" y1="26.1757" x2="444.7" y2="59.0403" gradientUnits="userSpaceOnUse">
<stop offset="0.436602" stop-color="#1F2ADB"/>
<stop offset="1" stop-color="#111675"/>
</linearGradient>
</defs>
</svg>
